<svg height="0.5em" width="0.515em" viewBox="0 0 24.21 23.65">
  <path d="m3.43,5.15c-1.5-.14-2.24-2.64-.86-3.5.36-.55,4.37-.6,3.05-.2l-.37.88c.42-2.74,4.31-1.37,6.21-1.82l-.75.57c.65-1.81,6.2-.53,3.99-.5,2.08-.94,5.82-.68,7.96.2h-1.26c3.27-1.23,2.07,4.6,2.37,6.45.08.92.73,1.9-.06,2.7-.35.37-.38-1.3.13-.61.58.92.39,2.24-.31,3.02l.32-1.22c.37,1.15.37,2.45-.09,3.53.88,1.07.14,4.12.36,5.83,0,1.61-2.5,1.61-2.5,0,.11-1.46-.2-3.11,0-4.53.62.7-.42-.59-.3-.88-.12-1.16.52-2.13.12-3.29-.04-.29-.05-.54.06-.81.06-.15.37-.62.14-.25-.05-.34-.05-.4,0-.19-.5,0-.46-1.71.15-2.27l-.13.96c-.47-1.22-.38-2.32-.39-3.63m-.26-1.19c-.01.93-1.67,3.97-2.45,3.25h1.26c-4.91,3.91-8.61,8.99-13.67,12.83-1.54.65-1.97,2.94-3.35,3.15-1.44,0-2.14-.21-2.71-1.64-.78-2.54,2.96-3.63,4.07-5.61,4.71-4.07,7.21-7.19,10.84-10.99m6.85-1.22c.43,1.25.34,2.46.11,3.71.75,4.29-.48,8.76.73,13.08l-1.58-1.21c1.96-1.32,4.35.27,2.09,1.92-1.93.77-2.85.95-3.12-1.4-.74-3.24-.75-6.67-.21-9.92-.27,1.13-.17-1.5-.08-1.17-.05-.32-.73-1.46-.78-1.79" fill="currentColor"/>
</svg>