<svg class="icon-arrow-left" viewBox="0 0 31.41 28.98" height="0.5em" width="0.5419254658em" aria-hidden="true">
  <path id="arrow" d="m16.84,25.86c.96,1.16-.29,3.45-1.87,3.08-.65.14-3.52-2.67-2.29-2.01l.88-.37c-2.23,1.64-4.02-2.08-5.68-3.11l.93.12c-1.73.82-4.76-4.01-3.17-2.47-2.14-.81-4.6-3.63-5.49-5.77l.89.89c-3.18-1.44,1.79-4.72,2.88-6.24.6-.71.83-1.86,1.96-1.87.51-.01-.66,1.19-.53.34.24-1.06,1.31-1.87,2.36-1.92l-1.09.63c.55-1.08,1.47-1.99,2.56-2.43.13-1.37,2.81-3.01,3.87-4.38,1.14-1.14,2.91.63,1.77,1.77-1.11.95-2.06,2.34-3.2,3.21.06-.93-.12.71-.41.83-.73.9-1.87,1.14-2.41,2.24-.17.24-.34.42-.62.53-.15.06-.7.18-.28.08-.2.27-.25.32-.14.13.35.36-.88,1.53-1.71,1.5l.77-.59c-.53,1.19-1.37,1.91-2.28,2.84m-.66,1.03c.66-.65,3.99-1.63,4.03-.56l-.89-.89c6.24.7,12.44-.27,18.74.59,1.55.63,3.47-.68,4.6.14,1.02,1.02,1.36,1.66.76,3.07-1.24,2.35-4.66.48-6.84,1.08-6.21-.45-10.18-.01-15.43.1m-5.71-3.98c.58-1.19,1.5-1.97,2.55-2.7,2.51-3.56,6.54-5.85,8.73-9.76l.27,1.97c-2.32-.45-2.88-3.27-.12-2.83,1.91.82,2.69,1.34,1.21,3.2-1.77,2.82-4.19,5.25-6.87,7.16.99-.61-.94,1.18-.77.88-.2.26-.52,1.54-.72,1.82" fill="currentColor"/>
</svg>