
<svg width="1.2em" height="1.2em" viewBox="0 0 30.32 31.1" aria-hidden="true">
  <path d="m27.72,22.06c.17-.07.35-.16.52-.22.08-.03.2,0,.25-.05.52-.56.89.15,1.34.19.29.03.54.41.47.81-.03.14-.06.3-.14.41-.34.47-.69.94-1.07,1.38-.33.38-.69.73-1.05,1.08-.75.76-1.47,1.56-2.28,2.26-.77.67-1.64,1.22-2.46,1.83-.2.15-.39.33-.6.46-.13.09-.29.15-.44.17-.23.04-.52-.1-.58.29,0,.04-.24.05-.37.07-.35.06-.78-.19-1.01.31-.02.05-.22.04-.34.04-.82,0-1.63,0-2.45,0-1.27,0-2.53.01-3.8,0-.23,0-.46-.13-.7-.21-.12-.04-.25-.13-.37-.13-.63.02-1.14-.27-1.64-.6-.07-.05-.16-.1-.24-.11-.56-.07-.97-.4-1.37-.77-.15-.14-.37-.29-.56-.29-.35,0-.55-.17-.81-.37-.53-.4-1.13-.71-1.67-1.1-.46-.34-.89-.73-1.32-1.12-.21-.19-.39-.41-.56-.63-.57-.77-1.14-1.56-1.7-2.34-.27-.38-.54-.76-.79-1.16-.41-.65-.87-1.27-1.18-1.96-.25-.55-.34-1.17-.48-1.77-.04-.2.02-.42-.02-.62-.03-.14-.14-.26-.21-.39-.05-.1-.12-.2-.13-.31-.01-.62-.01-1.25,0-1.87,0-.08.03-.24.06-.24.42-.07.27-.4.28-.63.02-.43.04-.86,0-1.29-.08-.78.14-1.46.56-2.1.07-.11.17-.25.15-.36-.09-.58.26-.97.54-1.41.47-.73.88-1.49,1.34-2.23.13-.21.33-.37.49-.57.31-.4.55-.89.94-1.2.66-.52.95-1.45,1.87-1.68.09-.02.18-.11.24-.18.61-.81,1.56-1.08,2.39-1.55.31-.17.62-.34.95-.47.29-.12.63-.14.91-.28.44-.21.89-.44,1.27-.75.26-.22.5-.33.83-.32.28.01.56-.03.83-.06.37-.05.54.16.58.47.08.77.13,1.54-.57,2.13-.25.21-.37.56-.59.81-.13.14-.34.21-.57.35,0,.02-.03.13-.01.25.06.4-.08.7-.42.9-.27.16-.31.39-.3.68.03.82-.13,1.61-.29,2.41-.17.84-.05,1.74-.06,2.62,0,.01,0,.04,0,.04.65.35.22.96.35,1.44.07.26.15.52.24.77.01.04.07.07.07.11,0,.53.28,1.01.35,1.5.12.88.59,1.57.92,2.33.19.44.45.86.71,1.28.36.57.8,1.03,1.44,1.34.53.25,1.01.64,1.45,1.04.49.44,1,.81,1.62,1.06.64.26,1.2.69,1.85.93.38.14.85.05,1.27.1.18.02.35.14.53.21-.01.05-.02.09-.03.14.96,0,1.93,0,2.89,0,.09,0,.18-.1.27-.15.11-.06.21-.14.32-.2.05-.02.14.01.17-.02.56-.58,1.29-.24,1.93-.36-.01-.04-.02-.07-.03-.11Zm-7.49,2.41s.02-.06.03-.09c-.3-.05-.63-.05-.89-.17-.64-.29-1.26-.63-1.88-.96-.97-.5-1.93-1.03-2.69-1.84-.18-.19-.34-.41-.53-.6-.75-.74-1.52-1.46-2.27-2.2-.08-.08-.13-.2-.19-.3-.39-.7-.8-1.39-1.17-2.09-.13-.25-.24-.53-.27-.81-.04-.4-.04-.77-.24-1.15-.34-.65-.63-1.34-.49-2.11.02-.08,0-.24-.03-.25-.49-.19-.26-.62-.32-.95-.02-.13-.04-.25-.08-.38-.09-.27-.25-.53-.26-.8-.04-.64-.02-1.28,0-1.92,0-.14,0-.34.1-.42.29-.26.21-.58.27-.9.09-.53-.32-1.18.33-1.6.02-.01.01-.06.01-.09,0-.3,0-.61,0-1.05-1.02.67-2.03,1.11-2.7,2.03-.02.02-.03.05-.05.07-.24.32-.42.7-.72.94-.79.63-1.35,1.48-1.82,2.31-.76,1.36-1.72,2.71-1.5,4.43.02.13-.01.27-.04.4-.1.44-.27.88-.29,1.32-.05.98-.02,1.96,0,2.94,0,.13.08.27.12.4.08.23.24.47.22.69-.04.46.16.75.49,1.02.12.1.17.27.24.42.12.27.21.56.34.82.11.23.27.45.39.68.2.34.33.75.59,1.03.77.83,1.58,1.62,2.38,2.41.18.17.4.3.62.42.33.18.69.33,1.02.52.47.27.92.57,1.39.85.14.08.28.15.43.23.76.43,1.49.92,2.43.85.12,0,.26.07.38.13.13.06.25.21.38.21.93.02,1.87,0,2.7,0,.16.19.26.31.36.44h.12c-.04-.47.24-.44.52-.44.65,0,1.3,0,1.95,0,.06-.18.15-.33.26-.35.49-.07.96.02,1.47-.31.55-.36,1.2-.56,1.68-1.06.23-.24.55-.38.9-.61.06-.57.69-1.2,1.4-1.29v-.73c-.21.05-.45.03-.54.14-.26.32-.6.27-.93.27-.43,0-.86.02-1.29,0-.18-.01-.35-.14-.52-.21.01-.04.02-.09.03-.13-.41,0-.83.02-1.24,0-.19-.02-.38-.13-.57-.21Z" fill="currentColor"/>
</svg>