<svg width="1.2em" height="1.2em" viewBox="0 0 31.82 32.6">
<title> Dark theme.</title>
<path d="m16.33 32.6c-.62 0-1.24 0-1.87-.01-.3 0-.55-.11-.76-.19-.05-.02-.11-.04-.16-.06-.07-.02-.15-.06-.22-.09-.82-.03-1.44-.38-1.96-.72 0 0-.01 0-.02-.01-.73-.12-1.25-.53-1.7-.96-.06-.06-.12-.09-.13-.1 0 0-.02 0-.03 0-.48 0-.84-.28-1.11-.48-.3-.23-.59-.41-.87-.58s-.56-.34-.82-.54c-.47-.34-.9-.73-1.31-1.1-.3-.27-.52-.51-.73-.81-.57-.78-1.14-1.56-1.7-2.35-.28-.39-.55-.78-.81-1.19l-.3-.47c-.33-.5-.67-1.01-.93-1.58-.23-.5-.34-1.02-.44-1.52l-.08-.39c-.05-.21-.04-.39-.03-.53 0-.03 0-.05 0-.08-.07-.11-.11-.17-.14-.24-.09-.16-.2-.36-.21-.63-.01-.63-.01-1.26 0-1.89 0-.37.13-.66.35-.83 0-.02 0-.21 0-.21.01-.37.03-.72 0-1.05-.09-.9.13-1.75.67-2.58 0 0 0-.01.02-.03-.04-.68.3-1.17.55-1.54l.13-.19c.26-.4.5-.82.75-1.23.19-.33.39-.66.59-.99.12-.19.25-.33.37-.46.05-.06.11-.11.16-.18.09-.12.18-.25.26-.38.21-.32.45-.67.8-.95.17-.14.33-.34.5-.56.35-.44.77-.99 1.52-1.22.55-.7 1.28-1.06 1.93-1.37.22-.1.43-.21.64-.33.4-.23.73-.39 1.04-.52.17-.07.34-.11.52-.15.14-.03.26-.06.35-.1.41-.2.81-.4 1.12-.65.28-.23.67-.49 1.26-.49h.14c.2 0 .4-.02.6-.05.12-.01.18-.02.24-.02.66 0 1.16.46 1.22 1.15.08.76.19 1.91-.83 2.77-.05.04-.12.16-.19.27-.1.16-.2.33-.33.47-.12.14-.25.23-.38.3 0 .53-.26 1-.74 1.3v.04c.03.89-.13 1.72-.29 2.52-.11.57-.09 1.13-.07 1.71 0 .16.01.33.01.49.46.47.38 1.09.35 1.39 0 .08-.02.2-.02.24.05.19.11.39.18.58v.03c.07.1.15.24.15.44 0 .19.07.42.15.66.07.22.16.48.19.75.07.51.3.97.54 1.46.11.22.22.44.32.67.17.4.41.78.65 1.17.32.52.67.84 1.12 1.06.63.3 1.17.75 1.63 1.15.52.46.94.74 1.41.93.35.14.67.32.97.49s.58.33.85.43c.08.03.23.04.35.04h.33c.14 0 .27 0 .41.02.26.03.46.13.61.21l.12.06c.05.02.1.05.15.08h2.24c.02-.02.15-.1.15-.1.09-.06.19-.12.29-.17.05-.03.12-.05.18-.06.45-.35.94-.39 1.28-.39.11 0 .23 0 .34.01h.17c.04-.03.08-.06.13-.08l.14-.06c.14-.06.28-.12.42-.17.06-.02.12-.04.17-.05.28-.21.55-.26.75-.26.39 0 .68.18.89.32.05.03.13.08.16.09.29.02.59.2.81.49.25.33.35.77.28 1.19-.04.22-.1.49-.28.72-.31.42-.69.94-1.1 1.42-.26.31-.55.6-.84.88l-.24.24c-.22.22-.43.44-.64.66-.53.55-1.08 1.12-1.68 1.64-.55.48-1.15.9-1.73 1.31-.26.18-.52.37-.78.56-.07.05-.14.11-.21.17-.14.11-.27.22-.42.32-.22.14-.46.24-.72.28-.04 0-.08.01-.11.01-.22.28-.6.32-.75.34-.17.02-.26.03-.35.03-.08 0-.17 0-.25-.01 0 0 0 0-.01 0-.25.36-.68.36-.84.36l-.11-.75v.75s-4.39 0-4.39 0zm1.04-3.64c.12 0 .25.03.35.09.22-.09.43-.09.54-.09h1.62c.2-.24.44-.31.59-.34.17-.02.33-.03.48-.04.32-.02.5-.03.69-.15.21-.14.44-.26.67-.38.35-.18.65-.34.88-.57.22-.23.48-.38.73-.53.02-.01.04-.02.06-.04.05-.13.11-.26.18-.38h-.33c-.21 0-.41 0-.62-.02-.28-.02-.5-.14-.66-.22l-.11-.05s-.08-.04-.12-.06h-.27c-.19 0-.39 0-.58-.02-.27-.02-.49-.12-.65-.2l-.13-.06c-.07-.03-.13-.06-.18-.1-.23-.03-.47-.07-.72-.18-.49-.22-.97-.47-1.45-.73l-.47-.25c-1.05-.55-2.06-1.11-2.89-1.99-.09-.1-.18-.2-.26-.3-.08-.09-.15-.19-.24-.27-.39-.38-1.91-1.84-2.27-2.19-.15-.15-.23-.31-.29-.42l-.33-.58c-.3-.52-.6-1.05-.88-1.58-.2-.38-.32-.74-.35-1.08l-.02-.17c-.02-.29-.04-.51-.15-.7-.35-.65-.68-1.43-.6-2.32-.37-.38-.33-.89-.32-1.09 0-.04 0-.09 0-.13-.03-.14-.04-.21-.06-.27-.02-.07-.05-.14-.08-.21-.09-.21-.19-.46-.21-.77-.03-.56-.02-1.12-.01-1.67v-.3c0-.22.01-.67.36-.97-.02 0-.01-.07 0-.13 0-.11.01-.23.03-.34.01-.06 0-.2-.02-.32-.02-.18-.05-.44-.02-.71-.38.26-.72.54-.97.89-.12.17-.18.26-.24.35-.17.27-.37.57-.67.81-.73.58-1.23 1.39-1.63 2.1l-.29.51c-.66 1.13-1.28 2.2-1.12 3.45.03.25 0 .47-.05.65-.04.16-.08.33-.13.49-.07.26-.14.5-.15.71-.04.78-.02 1.58-.01 2.35v.54s.09.17.09.17c.02.05.04.1.06.15.09.21.22.5.19.84-.01.11-.02.17.22.38.24.2.34.46.42.63.08.19.13.32.18.45.06.14.11.28.18.42.06.12.13.24.21.36.06.09.11.18.16.27.07.13.14.26.2.39.1.2.19.39.29.5.73.79 1.51 1.56 2.27 2.3l.08.08c.09.09.26.18.43.28.17.09.31.16.46.23.21.1.41.2.61.31.31.18.61.37.92.56l.49.3c.07.04.14.08.2.11l.2.11.27.15c.57.33 1.06.61 1.61.61h.14c.34 0 .55.1.69.17.12.06.2.11.28.17h1.29 1.23z" fill="currentColor"/></svg>