<svg width="0.8em" height="0.8em" viewBox="0 0 26.25 25.35" aria-hidden="true">
  <path id="rss" d="m25.81,24.99c-.51.11-1.24-.29-1.52.28-.01.04-.36.07-.45-.01-.5-.42-.53-.43-.96,0-.95-.5-2.39-.8-2.4-2.14,0-.68-.83-1.11-.7-1.83-.53-2.48-1.51-5.14-2.97-7.25.03-.03.06-.06.09-.09-.2-.01-.41-.02-.68-.04-.72-1.91-2.87-3.47-4.22-5.13-.34-.51-.76-.59-1.35-.62-.98-.98-2.25-.96-3.31-1.8-.04.15-.08.28-.12.43-.38-.05-.75-.09-1.23-.15-.67-.45-1.96,0-2.65-.8-1.04-.16-2.14-.1-2.87-1.03C-.92-.29.88,1.31,3.99,0c.14.32.27.67.55.12.85-.34,1.78.26,2.61.34.78-.26,1.02.57,1.71.63.23.05.56-.14.63.29,1.36-.21,2.06,1.4,3.5,1.12.02.25.03.47.04.65.47.18.91.35,1.39.54.01.14.03.35.03.42,1.72,1.29,4.34,2.91,5.36,4.68,1.15.34,1.07,1.37,2.1,1.7.13.94,1.1,1.87,1.77,2.55.63.97.78,2.24,1.31,3.31.24.38-.09,1.03.41,1.21.3.4-.23,1.17.41,1.47-.09.77.48,1.62.26,2.44-.38.67.45,1.72.07,2.28-.44.37-.2.8-.34,1.24ZM14.43,8.6c.33.84.63,1.11,1.09.98-.15-.32-.3-.64-.46-.98h-.63Zm1.22,16.38c-.17.27-.31.62-.57.12-.38-.21-.99-.1-1.43-.1-.74.09-2.56-2.49-1.67-3.06-.56-2.53-1.64-5.16-3.93-6.79-.75-.98-2.3-.46-2.91-1.22-1.89.3-4.17-.34-3.89-2.69-.31-.33-.5-.63-.27-1.06.51-2.02,1.91-.71,2.88-1.51.17-.09.77.12,1,.25.26.07.64-.15.74.31,0,.02.08.05.12.04,1.56.09,2.57,1.47,4.09,1.46-.02.88,1.72,1.39,2.46,1.87,0,.79.85,1.14,1.28,1.68.91,1.41,2.59,2.58,3.11,4.27.27,1.14,1.84,2.47,1.11,3.59-.08.95-.46,1.83-.47,2.81-.68-.15-1.09.79-1.64,0Zm-1.87-2.85c-.13.59.09.97.64,1.1.04-.49-.22-.96-.64-1.1Zm-6.6,1.34c.53-.55.41-1.39.57-2.01.41-.13.21-.33.1-.54-.57-1.41-2.06-2.31-3.56-1.93-1.4.07-2.66,2.34-2.15,3.46.67.41.7,1.41,1.58,1.58.65.65,3.24.28,3.46-.56Z" fill="currentColor" />
</svg>