<svg viewBox="0 0 38.14 37.16" width="1.2em" height="1.2em">
<title>Light Theme.</title>
<path d="m19.3 37.16c-.27 0-.51-.09-.7-.16l-.15-.05c-.24-.08-.49-.17-.73-.31-.24-.15-.96-.59-.9-1.58.02-.37.02-.75.01-1.13v-.52s0-.4 0-.4c0-.25.01-.49 0-.73-.14-1.38.65-2.32 1.34-2.99.12-.12.34-.25.69-.25.12 0 .25.02.4.05s.28.09.38.13c1.15.1 1.81.74 1.91 1.89v.28.11l.03.84c.03.66.06 1.32.06 1.98v.15c.01.54.03 1.36-.72 1.93-.44.33-.88.57-1.3.7-.1.03-.22.05-.33.05zm-13.38-3.57c-.45-.02-.87-.3-1.19-.79-.3-.45-.53-1.15-.3-1.75.23-.59.54-1.12.84-1.63.23-.4.49-.83.87-1.18.51-.46.98-.71 1.43-.75.05-.2.18-.39.37-.49l.28-.16c.22-.13.43-.25.68-.34.27-.1.54-.11.75-.11 0 0 .33-.01.44-.01h.43c.56 0 1.05.26 1.31.7.26.43.27.95.01 1.44-.19.37-.42.69-.65 1.01-.12.17-.24.34-.35.51-.02.12-.04.21-.07.3l-.06.16c-.07.22-.16.5-.38.75-.19.22-.4.42-.6.62-.18.17-.35.34-.51.53-.91 1.07-2.12 1.2-2.96 1.2-.11 0-.23 0-.34 0zm25.3-.68c-.57 0-1.06-.13-1.48-.39-.19-.11-.48-.28-.59-.64-.09-.3-.34-.53-.63-.81-.21-.2-.46-.43-.66-.72-.38-.53-.74-1.08-1.12-1.66l-.5-.76c-.15-.22-.17-.5-.05-.74s.35-.4.62-.42h.06c.04-.34.16-.76.59-1.09.33-.26.77-.4 1.24-.4.66 0 1.23.28 1.53.76h.06c.41.04.84.29 1.07.63.13.19.22.4.32.61.05.12.1.24.17.35.18.27.37.53.56.79.17.23.35.47.51.71.27.4.54.8.72 1.24.16.41.08.95-.22 1.46-.33.56-.82.94-1.31 1-.29.04-.59.07-.88.07zm-12.49-4.78c-.18 0-.36-.06-.49-.19-.05-.04-.24-.07-.57-.07h-.54c-.34 0-.61-.12-.79-.34h-.01c-.93 0-1.66-.46-2.3-.96-.15-.11-.35-.21-.57-.32-.19-.09-.38-.19-.56-.3l-.1-.06c-.43-.26-1.02-.62-1.25-1.34-.29-.15-.46-.39-.58-.54-.03-.05-.07-.09-.11-.14-.56-.63-.84-1.35-1.08-1.99-.07-.18-.14-.36-.22-.54-.3-.71-.44-1.5-.53-2.17-.09.17-.24.3-.44.37-.16.06-.29.11-.46.11-.04 0-.09 0-.13-.01h-.1c-.2 0-.4.1-.72.28-.16.09-.33.19-.5.26-.33.15-.68.16-.96.17-.04 0-.09 0-.13 0-.22.25-.58.36-.83.36-.43 0-.86 0-1.28 0-.4 0-.8 0-1.2-.01-.44 0-.78-.27-.9-.38-.25-.22-.48-.46-.72-.7l-.15-.15c-.35-.36-.54-.8-.51-1.25.02-.45.25-.87.64-1.2l.09-.07c.31-.26.73-.62 1.36-.63.07-.07.16-.14.28-.19l.29-.12c.28-.12.6-.26.95-.33.17-.03.33-.05.5-.05.41 0 .79.12 1.13.34h.16c.16 0 .33.01.48.05.22.05.4.13.54.2 0 0 .18.09.21.1h.11c.82 0 1.53.4 2 1.13.1.16.17.32.21.48 0-.32.02-.63.05-.93.03-.36.12-.69.2-1 .03-.11.09-.37.1-.39-.06-.74.3-1.29.57-1.7.14-.21.27-.4.31-.57.07-.26.28-.62.65-.75.22-.08.32-.25.51-.68.08-.18.16-.36.26-.53.2-.34.47-.58.72-.79l.12-.1c.16-.15.34-.21.46-.26.48-.28 1.14-.69 1.96-.69.1 0 .19 0 .29.02.45-.35.95-.35 1.15-.35h.35s.94-.01 1.15-.01c.27 0 .55 0 .82.03.56.05 1.1.18 1.62.3l.16.04c.21.05.41.11.61.18.22.07.43.14.65.18 0 0 .09-.03.2-.09.22-.13.47-.25.78-.25.21 0 .5.06.79.32h.09c1.18 0 1.99.66 2.69 1.24.18.15.37.3.56.44.48.34.77.85 1.03 1.3.1.18.21.36.33.53.09.13.2.25.3.37.11.13.22.26.32.39.11.14.28.42.31.77.02.21.01.42.01.62v.3c.25.21.35.57.35.89v.64c.18-.22.39-.38.58-.52.05-.04.11-.08.16-.12.12-.13.29-.23.46-.26.14-.03.32-.11.51-.19.33-.15.75-.34 1.24-.34.18 0 .36.03.54.08.13.04.23.09.29.12.11.05.18.09.26.13.05.02.09.05.14.07.22 0 .49.01.76.01.29 0 .57 0 .86-.01.62 0 .98.28 1.23.52.04.03.17.09.25.13.13.06.27.12.39.19.19.11.46.29.68.55.16.19.23.41.28.57l.04.12c.13.32.03.68-.25.88-.68.5-1.6 1.07-2.73 1.07 0 0-.14 0-.21 0-.04.03-.09.06-.14.07-.04.02-.08.04-.12.05-.17.08-.4.18-.68.19-.17 0-.33.01-.49.01-.49 0-1.13-.04-1.78-.36l-.16.02c-.08 0-.16 0-.23 0-.15 0-.37-.01-.6-.1-.42-.17-.79-.4-1.15-.61-.04-.03-.09-.05-.13-.08v1.05c0 .32-.17.55-.26.69 0 0-.08.13-.08.13v.29.42c-.01.21-.04.68-.45.93-.24.15-.42.42-.62.73-.23.36-.5.76-.93 1.08-.38.28-.76.58-1.13.88-.31.25-.62.5-.94.74-.26.2-.57.22-.75.23 0 0-.02 0-.05 0-.21.24-.54.31-.73.35-.1.02-.19.03-.28.03-.03 0-.06 0-.09 0-.24.34-.69.35-.88.35h-.85c-.17.21-.46.34-.82.36h-.15s-.4 0-.4 0c-.06 0-.12 0-.19 0-.16.02-.31.07-.49.12l-.38.11c-.06.02-.13.02-.19.02zm.45-3.89h1.49c.03-.04.06-.07.09-.1.15-.13.34-.26.54-.26h.08c.04 0 .08.01.12.01.13 0 .31-.04.59-.34.15-.17.42-.37.76-.37s.09-.1.13-.16c.05-.07.09-.14.15-.2.13-.17.29-.36.5-.52.67-.51 1.04-1.08 1.09-1.69.06-.7.04-1.42.02-2.17-.01-.36-.02-.73-.02-1.09 0-.66-.21-1.26-.66-1.89-.18-.26-.34-.52-.5-.79-.18-.3-.36-.6-.58-.88-.06-.08-.11-.16-.17-.24-.14-.21-.25-.36-.32-.36-.05.01-.2.03-.25.03-.29 0-.5-.13-.63-.21l-.2-.11s-.06-.03-.09-.05c-.2-.05-.42-.08-.65-.11h-.1c-.23.05-.53.11-.87.11-.42 0-.81-.1-1.2-.29-.01 0-.08-.04-.26-.04-.2 0-.47.04-.74.13l-.15.05c-.18.07-.4.15-.67.17-.77.05-1.25.3-1.57.79-.07.1-.13.21-.19.31-.06.11-.13.22-.2.33-.63 1-1.15 1.8-1.06 2.8.03.29-.04.72-.29 1.04-.05.07-.22.28-.02.85.22.64.33 1.29.34 1.97.09.24.19.43.29.61.12.21.23.43.34.65.33.67.51 1 .96 1.18l.32.13c.47.2.87.37 1.28.37.06 0 .13 0 .19-.01h.13c.31 0 .55.14.7.23.03.02.06.04.09.05.04.02.08.04.11.06h1.07zm8.76-12.6c-1 0-1.56-.56-1.93-1.04-.11-.14-.44-.57-.3-1.09.09-.34.34-.6.75-.78.35-.16.59-.48.86-.89.46-.71 1.03-1.25 1.72-1.64.14-.08.29-.23.45-.39.15-.15.3-.29.46-.42.19-.15.58-.4 1.03-.43.29-.02.58-.02.87-.02h1.07c.37 0 .68.27.74.63.15.91.2 2.21-1.01 3.12-.05.1-.1.19-.17.28l-.11.15c-.16.21-.34.45-.58.65-.17.14-.35.27-.54.39-.18.12-.35.24-.46.35-.8.85-1.75 1.04-2.58 1.12-.09 0-.18.01-.27.01zm-18.36-.18c-.39 0-.71-.18-.94-.37-.04 0-.09 0-.13 0-.57 0-.96-.3-1.23-.57-.14-.13-.26-.27-.39-.41-.31-.34-.51-.55-.79-.63-.53-.15-.72-.77-.68-1.14 0-.02-.02-.07-.15-.18-.42-.39-.95-.9-.97-1.71-.02-.03-.04-.05-.05-.07-.12-.18-.16-.4-.1-.61.03-.12.06-.23.1-.32.04-.13.07-.23.08-.29.06-.83.6-1.46 1.4-1.64.02-.01.14-.11.16-.12.11-.06.24-.1.37-.1.05 0 .11 0 .16.02l.28.06c.25.05.49.1.72.17.27.08.48.23.63.35.17.14.34.28.51.42.27.23.55.46.84.67.69.49 1.64 1.27 2.01 2.46.24.77.18 1.59.09 2.3-.07.53-.48.9-.78 1.17l-.11.1c-.34.31-.67.46-1.03.46zm9.56-2.55c-.1 0-.2-.01-.29-.04-.59-.15-1.18-.5-1.58-.92-.43-.47-.5-1.19-.51-1.57 0-.61.01-1.22.04-1.83.02-.42.03-.84.04-1.26.02-1.71.49-2.37 2.1-2.98 0 0 .03-.03.06-.05.05-.04.11-.08.17-.13.13-.09.28-.13.42-.13.17 0 .33.06.47.17.77.62 1.16 1.38 1.15 2.27.36.47.36.99.35 1.36v.28c.01.14.04.28.06.42.06.33.13.7.07 1.1l-.03.25c-.11.81-.25 1.93-1.31 2.6-.29.19-.74.46-1.21.46z" fill="currentColor"/></svg>