<svg viewBox="0 0 36.64 35.66" width="1.2em" height="1.2em" aria-hidden="true">
<path d="m17.98,26.63c-.34-.3-.89-.25-1.42-.25-.19,0-.44.07-.46-.26,0-.04-.2-.1-.29-.09-.83.09-1.45-.31-2.07-.79-.36-.28-.81-.43-1.2-.67-.51-.32-1.08-.61-1.09-1.38-.43.05-.54-.28-.78-.56-.61-.69-.83-1.54-1.17-2.33-.3-.69-.41-1.48-.52-2.23-.08-.57-.05-1.16,0-1.74.03-.42.17-.83.27-1.24,0-.04.06-.09.05-.12-.19-.9.63-1.42.83-2.17.02-.09.1-.21.18-.24.73-.26.84-.97,1.17-1.54.16-.28.44-.49.69-.71.1-.09.27-.11.39-.19.55-.34,1.1-.65,1.79-.55.12.02.31.02.38-.06.33-.37.76-.29,1.17-.29.63,0,1.25-.04,1.88.01.57.05,1.13.19,1.68.32.44.1.87.29,1.32.36.22.04.49-.07.7-.18.28-.16.5-.24.75.04.07.08.21.16.31.15,1.33-.13,2.13.87,3.04,1.53.52.37.79,1.1,1.18,1.65.2.27.44.51.64.78.08.11.15.25.16.37.02.31,0,.63.01.94,0,.2-.09.46.26.51.05,0,.09.2.09.31,0,1.3,0,2.59,0,3.89,0,.14-.15.27-.22.41-.05.09-.12.19-.12.29-.02.27,0,.54-.01.8,0,.11-.02.28-.09.33-.74.45-.93,1.35-1.61,1.85-.71.52-1.38,1.1-2.08,1.63-.11.09-.31.07-.47.09-.18.02-.39-.06-.44.23,0,.06-.21.1-.33.12-.29.06-.67-.17-.81.31-.01.04-.19.05-.29.05-.31,0-.63,0-.94,0-.2,0-.47-.1-.48.27,0,.03-.17.08-.27.08-.27.01-.54-.02-.8.01-.28.04-.55.14-.96.24Zm2.52-2.61c0-.05,0-.1,0-.15.58.1,1.01-.16,1.39-.56.06-.06.15-.14.22-.13.48.03.64-.36.87-.66.1-.14.22-.27.35-.38.75-.57,1.31-1.3,1.39-2.22.1-1.1,0-2.22,0-3.33,0-.87-.3-1.62-.79-2.32-.39-.55-.69-1.17-1.1-1.7-.32-.42-.58-1.01-1.31-.86-.11.02-.25-.11-.38-.17-.12-.06-.24-.14-.37-.17-.24-.06-.49-.1-.74-.13-.12-.02-.25-.02-.37.01-.53.13-.99.17-1.55-.12-.42-.21-1.06-.11-1.56.04-.21.06-.43.17-.67.19-.88.06-1.65.36-2.15,1.13-.14.21-.26.44-.39.65-.64,1-1.29,1.99-1.17,3.27.01.17-.03.38-.13.51-.39.5-.31,1.1-.15,1.56.2.58.29,1.14.3,1.74,0,.13.02.27.08.38.2.41.44.8.64,1.2.31.64.59,1.24,1.35,1.55.71.29,1.37.64,2.17.54.16-.02.35.14.52.22-.01.04-.02.08-.04.12,1.04,0,2.08,0,3.13,0,.16,0,.31-.13.47-.2ZM4.3,5.51c-.07.63.34.99.73,1.35.24.22.42.45.38.8-.01.11.06.32.13.34.68.19,1.03.78,1.49,1.23.26.24.49.4.86.35.11-.02.27-.01.33.05.41.4.71.44,1.12.06.26-.23.62-.51.65-.8.08-.65.13-1.37-.06-1.98-.27-.88-.96-1.53-1.73-2.07-.48-.34-.92-.75-1.38-1.12-.11-.09-.24-.18-.37-.21-.31-.09-.62-.14-.96-.22-.08.05-.22.17-.37.2-.49.11-.78.46-.82.96-.02.22-.11.43-.2.76.03.04.2.18.19.29Zm2.59,21.98c-.35.03-.72.3-.99.55-.29.26-.5.62-.7.96-.3.51-.6,1.03-.82,1.57-.21.52.35,1.5.82,1.52,1.01.04,1.98-.07,2.7-.93.34-.41.77-.75,1.12-1.15.16-.18.21-.46.3-.7.05-.14.06-.31.14-.44.32-.49.7-.95.97-1.46.28-.54-.07-1.03-.66-1.04-.24,0-.48,0-.71,0-.22,0-.45,0-.65.07-.27.1-.51.27-.85.45.08.44-.17.54-.66.58Zm20.82,1.69c.43.6,1.16.97,1.4,1.74.03.09.17.16.27.22.59.36,1.24.3,1.87.21.52-.07,1.11-1,.93-1.45-.15-.39-.4-.75-.64-1.1-.35-.51-.74-.99-1.08-1.51-.19-.29-.28-.66-.48-.95-.11-.15-.34-.29-.52-.31-.27-.03-.45-.07-.61-.33-.31-.51-1.21-.56-1.68-.19-.42.33-.28.77-.35,1.19-.21.02-.4.03-.71.06.57.86,1.06,1.64,1.6,2.4ZM18.44.26c-1.32.49-1.59.89-1.61,2.28-.01,1.02-.09,2.05-.07,3.07,0,.37.08.83.31,1.07.31.33.77.59,1.21.71.26.07.63-.16.91-.34.85-.53.88-1.46,1-2.31.06-.44-.1-.9-.14-1.36-.04-.48.11-.99-.33-1.38-.05-.04-.03-.17-.03-.26.03-.73-.28-1.29-.86-1.75-.15.1-.26.21-.39.26Zm-12.95,15.98c-.18-.08-.34-.18-.53-.22-.29-.06-.65.02-.86-.13-.36-.26-.73-.28-1.1-.21-.38.08-.74.26-1.1.41-.03.01-.05.08-.08.1-.08.06-.18.18-.25.17-.53-.11-.86.22-1.21.51-.47.39-.5.91-.07,1.35.27.28.54.56.83.81.11.1.28.19.42.19.82.02,1.64.01,2.45,0,.1,0,.28-.07.28-.12.02-.28.22-.22.39-.23.32-.03.67,0,.95-.12.57-.26,1.05-.71,1.75-.6.05,0,.11-.03.24-.07-.09-.33-.1-.69-.27-.96-.43-.67-1.09-.92-1.91-.71.02-.06.04-.11.06-.17Zm11.34,18.11c-.03.45.22.69.54.89.17.1.37.17.56.23.24.08.53.23.73.16.38-.12.75-.34,1.07-.58.49-.37.42-.96.42-1.48,0-.93-.06-1.87-.1-2.8,0-.12,0-.24,0-.36-.07-.78-.44-1.14-1.21-1.19-.17-.01-.32-.13-.49-.17-.13-.03-.34-.06-.41.01-.67.65-1.21,1.36-1.11,2.38.04.4,0,.8,0,1.2,0,.56.03,1.13,0,1.69ZM30.27,4.94c-.21.01-.44.14-.61.27-.35.27-.63.66-1,.87-.62.35-1.08.82-1.46,1.4-.31.47-.63.93-1.18,1.17-.4.18-.43.38-.15.73.38.5.8.8,1.53.74.83-.08,1.52-.27,2.1-.89.3-.32.72-.51,1.05-.8.23-.2.4-.45.59-.69.09-.11.12-.29.23-.36.87-.6.97-1.46.8-2.46-.65,0-1.27-.02-1.9.01Zm6.17,12.54c-.13-.15-.3-.28-.48-.38-.26-.15-.58-.23-.79-.43-.21-.21-.39-.32-.69-.31-.58.02-1.16.02-1.74,0-.19-.01-.38-.15-.57-.23-.08-.03-.15-.09-.23-.11-.74-.21-1.3.36-1.96.48-.02,0-.04.04-.06.06-.24.2-.51.36-.7.6-.2.26-.32.58-.47.88.49.28.95.61,1.47.82.31.12.75-.05,1.04.1.63.31,1.27.29,1.92.27.19,0,.38-.13.57-.2-.02-.06-.03-.13-.05-.19,1.14.27,2.06-.19,2.95-.85-.07-.18-.11-.37-.21-.5Z" fill="currentColor"/></svg>